<?xml version="1.0" encoding="UTF-8"?>
<svg width="50px" height="30px" viewBox="0 0 50 30" version="1.1" xmlns="http://www.w3.org/2000/svg" xmlns:xlink="http://www.w3.org/1999/xlink">
    <title>Mastercard Copy</title>
    <g id="Mastercard-Copy" stroke="none" stroke-width="1" fill="none" fill-rule="evenodd">
        <g id="Master" transform="translate(4.000000, 1.000000)">
            <polygon id="Fill-3" fill="#FF5F00" points="15.8264536 3.23972603 27.366576 3.23972603 27.366576 24.5616438 15.8264536 24.5616438"></polygon>
            <path d="M16.5591598,13.9006849 C16.5591598,9.56849315 18.5374665,5.7260274 21.5781972,3.23972603 C19.3434433,1.43150685 16.5225245,0.339041096 13.4451585,0.339041096 C6.15473196,0.339041096 0.256447165,6.40410959 0.256447165,13.9006849 C0.256447165,21.3972603 6.15473196,27.4623288 13.4451585,27.4623288 C16.5225245,27.4623288 19.3434433,26.369863 21.5781972,24.5616438 C18.5374665,22.1130137 16.5591598,18.2328767 16.5591598,13.9006849 Z" id="Fill-4" fill="#EB001B"></path>
            <path d="M42.9365825,13.9006849 C42.9365825,21.3972603 37.0382977,27.4623288 29.7478711,27.4623288 C26.6705052,27.4623288 23.8495863,26.369863 21.6148325,24.5616438 C24.6921985,22.0753425 26.6338698,18.2328767 26.6338698,13.9006849 C26.6338698,9.56849315 24.6555631,5.7260274 21.6148325,3.23972603 C23.8495863,1.43150685 26.6705052,0.339041096 29.7478711,0.339041096 C37.0382977,0.339041096 42.9365825,6.44178082 42.9365825,13.9006849 Z" id="Fill-5" fill="#F79E1B"></path>
        </g>
    </g>
</svg>