<?xml version="1.0" encoding="UTF-8"?>
<svg width="50px" height="30px" viewBox="0 0 50 30" version="1.1" xmlns="http://www.w3.org/2000/svg" xmlns:xlink="http://www.w3.org/1999/xlink">
    <title>Visa Copy</title>
    <g id="Visa-Copy" stroke="none" stroke-width="1" fill="none" fill-rule="evenodd">
        <g id="Visa" transform="translate(0.000000, 0.294118)" fill="#2A2A6D">
            <path d="M18.8496449,6.84077845 L12.3507411,22.7028149 L8.10799759,22.7028149 L4.91146569,10.0442311 C4.71685002,9.26539482 4.54722154,8.97883792 3.95809268,8.65363012 C2.99314025,8.11667359 1.40310178,7.61462756 -4.06295762e-05,7.30105659 L0.0954388744,6.84077845 L6.92019193,6.84077845 C7.79169634,6.84077845 8.57462827,7.43321771 8.77127542,8.45705083 L10.4614658,17.6374696 L14.6353422,6.84077845 L18.8496449,6.84077845 Z M35.464907,17.5248418 C35.4819714,13.3387004 29.8045976,13.1086653 29.8454303,11.2376295 C29.8572129,10.6688795 30.3862099,10.0643878 31.5453718,9.9077062 C32.1223117,9.83165121 33.7050369,9.77263587 35.5010673,10.6173449 L36.2072093,7.25450927 C35.24246,6.89709239 33.9973667,6.55172794 32.455068,6.55172794 C28.4902308,6.55172794 25.6979631,8.70932065 25.6739917,11.7955738 C25.6502234,14.0811717 27.666263,15.3520796 29.1866217,16.1113827 C30.7504541,16.890219 31.2749819,17.3874856 31.2676686,18.0836173 C31.2581206,19.1463091 30.0227784,19.6165617 28.8684921,19.6358871 C26.8524526,19.6680962 25.6790704,19.0779428 24.7449964,18.6347043 L24.0195554,22.1103756 C24.9556608,22.5513283 26.686887,22.9330579 28.4802765,22.9523833 C32.6947825,22.9523833 35.4531244,20.8218047 35.464907,17.5248418 L35.464907,17.5248418 Z M45.9367739,22.7028149 L49.6478794,22.7028149 L46.408077,6.84077845 L42.9815817,6.84077845 C42.2153079,6.84077845 41.5642189,7.30105659 41.2767647,8.00653932 L35.2570867,22.7028149 L39.4691548,22.7028149 L40.3069367,20.3345125 L45.4524694,20.3345125 L45.9367739,22.7028149 Z M41.458582,17.0840969 L43.5729452,11.1270796 L44.7867538,17.0840969 L41.458582,17.0840969 Z M24.5824781,6.84077845 L21.2654795,22.7028149 L17.2545278,22.7028149 L20.5715264,6.84077845 L24.5824781,6.84077845 Z" id="Fill-10"></path>
        </g>
    </g>
</svg>